<?xml version="1.0" encoding="UTF-8" standalone="no"?>
<!DOCTYPE svg PUBLIC "-//W3C//DTD SVG 1.0//EN" "http://www.w3.org/TR/2001/REC-SVG-20010904/DTD/svg10.dtd" [
<!ENTITY ns_flows "http://ns.adobe.com/Flows/1.0/">
	<!ENTITY ns_extend "http://ns.adobe.com/Extensibility/1.0/">
	<!ENTITY ns_ai "http://ns.adobe.com/AdobeIllustrator/10.0/">
	<!ENTITY ns_graphs "http://ns.adobe.com/Graphs/1.0/">
	<!ENTITY ns_vars "http://ns.adobe.com/Variables/1.0/">
	<!ENTITY ns_imrep "http://ns.adobe.com/ImageReplacement/1.0/">
	<!ENTITY ns_sfw "http://ns.adobe.com/SaveForWeb/1.0/">
	<!ENTITY ns_custom "http://ns.adobe.com/GenericCustomNamespace/1.0/">
	<!ENTITY ns_adobe_xpath "http://ns.adobe.com/XPath/1.0/">
	<!ENTITY ns_svg "http://www.w3.org/2000/svg">
	<!ENTITY ns_xlink "http://www.w3.org/1999/xlink">
]>
<svg enable-background="new 0 0 544.5 544.5" viewBox="0 0 544.5 544.5" xml:space="preserve" xmlns="http://www.w3.org/2000/svg" xmlns:xlink="http://www.w3.org/1999/xlink"><defs>
					<path d="m0,0h544.5v544.5h-544.5v-544.5z" id="XMLID_1_"></path>
				<clipPath id="XMLID_2_">
					<use xlink:href="#XMLID_1_"></use>
				</clipPath></defs>
	
				
				
				<path clip-path="url(#XMLID_2_)" d="m3.75,3.75h533.25v533.25h-533.25v-533.25z" fill="#fff" fill-rule="evenodd"></path>
				<path clip-path="url(#XMLID_2_)" d="m470.25,270.75v-15.75l-.75-.75v-6.75l-.75-.75v-5.25l-.75-1.5v-3.75l-.75-.75v-3l-.75-.75v-3l-.75-.75v-2.25l-.75-1.5v-1.5l-.75-.75v-3l-.75-.75v-1.5l-.75-1.5v-.75l-.75-1.5v-.75l-.75-1.5v-1.5l-.75-.75v-1.5l-.75-.75v-1.5l-.75-1.5v-.75l-.75-1.5-.75-.75v-1.5l-.75-.75v-1.5l-.75-1.5-.75-.75v-1.5l-.75-.75-.75-1.5v-.75l-.75-1.5-.75-.75v-1.5l-.75-.75-.75-1.5-.75-.75v-1.5l-.75-.75-.75-1.5-.75-.75v-1.5l-.75-.75-.75-1.5-.75-.75-.75-1.5v-.75l-.75-1.5-.75-.75-.75-1.5-.75-.75-.75-1.5-.75-.75v-.75l-.75-1.5-.75-.75-.75-1.5-.75-.75-.75-1.5-.75-.75-.75-.75-.75-1.5-.75-.75-.75-.75-.75-1.5-.75-.75-.75-.75-.75-1.5-.75-.75-.75-.75-.75-1.5-.75-.75-.75-.75-.75-1.5-.75-.75-.75-.75-.75-1.5-.75-.75-.75-.75-1.5-.75-.75-1.5-.75-.75-.75-.75-.75-.75-.75-1.5-.75-.75-.75-.75-1.5-.75-.75-1.5-.75-.75-.75-.75-.75-.75-1.5-.75-.75-.75-.75-1.5-.75-.75-1.5-.75-.75-.75-.75-.75-.75-.75-1.5-.75-.75-.75-.75-1.5-.75-.75-1.5-.75-.75-.75-.75-.75-1.5-.75-.75-.75-.75-.75-1.5-.75-.75-.75-.75-.75-1.5-.75-.75-.75-.75-.75-1.5-.75-.75-.75-.75-.75-1.5-.75-.75-.75-1.5-.75-.75-.75-.75-.75h-1.5l-.75-.75-1.5-.75-.75-.75-1.5-.75-.75-.75-.75-.75-1.5-.75h-.75l-1.5-.75-.75-.75-1.5-.75-.75-.75h-1.5l-.75-.75-1.5-.75-.75-.75h-1.5l-.75-.75-1.5-.75-.75-.75h-1.5l-.75-.75-1.5-.75h-.75l-1.5-.75-1.5-.75h-.75l-1.5-.75-.75-.75h-1.5l-.75-.75-1.5-.75h-.75l-1.5-.75h-1.5l-.75-.75h-1.5l-.75-.75h-1.5l-1.5-.75-.75-.75h-1.5l-.75-.75h-3l-.75-.75h-1.5l-.75-.75h-1.5l-1.5-.75h-.75l-1.5-.75h-2.25l-1.5-.75h-2.25l-1.5-.75h-2.25l-1.5-.75h-2.25l-1.5-.75h-3.75l-.75-.75h-5.25l-1.5-.75h-7.5l-.75-.75h-25.5l-1.5.75h-7.5l-.75.75h-5.25l-1.5.75h-3.75l-.75.75h-3l-.75.75h-3l-.75.75h-3l-.75.75h-3l-.75.75h-1.5l-.75.75h-1.5l-1.5.75h-.75l-1.5.75h-2.25l-1.5.75h-.75l-1.5.75-1.5.75h-.75l-1.5.75h-.75l-1.5.75h-1.5l-.75.75h-1.5l-.75.75-1.5.75h-.75l-1.5.75-.75.75h-1.5l-1.5.75-.75.75h-1.5l-.75.75-1.5.75h-.75l-1.5.75-.75.75-1.5.75h-.75l-1.5.75-.75.75-1.5.75h-.75l-1.5.75-.75.75-1.5.75-.75.75h-1.5l-.75.75-1.5.75-.75.75-.75.75-1.5.75-.75.75-1.5.75h-.75l-1.5.75-.75.75-.75.75-1.5.75-.75.75-1.5.75-.75.75-.75.75-1.5.75-.75.75-.75.75-1.5.75-.75.75-.75.75-1.5.75-.75.75-.75.75-1.5.75-.75.75-.75.75-.75.75-1.5,1.5-.75.75-.75.75-1.5.75-.75.75-.75.75-.75.75-1.5.75-.75,1.5-.75.75-.75.75-.75.75-1.5.75-.75.75-.75,1.5-.75.75-.75.75-.75.75-1.5,1.5-.75.75-.75.75-.75.75-.75,1.5-.75.75-.75.75-.75.75-.75,1.5-1.5.75-.75.75-.75,1.5-.75.75-.75.75-.75,1.5-.75.75-.75.75-.75,1.5-.75.75-.75.75-.75,1.5-.75.75-.75.75-.75,1.5-.75.75-.75.75-.75,1.5v.75l-.75,1.5-.75.75-.75,1.5-.75.75-.75.75-.75,1.5-.75.75-.75,1.5v.75l-.75,1.5-.75.75-.75,1.5-.75.75v1.5l-.75.75-.75,1.5-.75.75-.75,1.5v.75l-.75,1.5-.75.75v1.5l-.75.75-.75,1.5-.75.75v1.5l-.75.75-.75,1.5v.75l-.75,1.5-.75.75v1.5l-.75,1.5v.75l-.75,1.5-.75.75v1.5l-.75.75v1.5l-.75,1.5v.75l-.75,1.5v.75l-.75,1.5v1.5l-.75.75v1.5l-.75.75v1.5l-.75,1.5v.75l-.75,1.5v2.25l-.75,1.5v2.25l-.75,1.5v.75l-.75,1.5v2.25l-.75,1.5v3.75l-.75,1.5v3.75l-.75.75v5.25l-.75,1.5v7.5l-.75.75v23.25l.75.75v7.5l.75,1.5v5.25l.75.75v3.75l.75,1.5v3.75l.75,1.5v2.25l.75,1.5v.75l.75,1.5v2.25l.75,1.5v2.25l.75,1.5v.75l.75,1.5v1.5l.75.75v1.5l.75.75v1.5l.75,1.5v.75l.75,1.5v.75l.75,1.5v1.5l.75.75v1.5l.75.75 .75,1.5v1.5l.75.75v1.5l.75.75 .75,1.5v.75l.75,1.5 .75.75v1.5l.75.75 .75,1.5 .75,1.5v.75l.75,1.5 .75.75v1.5l.75.75 .75,1.5 .75.75 .75,1.5v.75l.75.75 .75,1.5 .75.75 .75,1.5v.75l.75,1.5 .75.75 .75,1.5 .75.75 .75,1.5 .75.75 .75.75 .75,1.5v.75l.75,1.5 .75.75 .75.75 .75,1.5 .75.75 .75,1.5 .75.75 .75.75 .75,1.5 .75.75 .75.75 .75,1.5 .75.75 .75.75 .75,1.5 .75.75 .75.75 1.5.75 .75,1.5 .75.75 .75.75 .75,1.5 .75.75 .75.75 .75.75 .75,1.5 1.5.75 .75.75 .75.75 .75.75 .75,1.5 .75.75 1.5.75 .75.75 .75.75 .75,1.5 .75.75 1.5.75 .75.75 .75.75 .75.75 1.5.75 .75.75 .75,1.5 1.5.75 .75.75 .75.75 .75.75 1.5.75 .75.75 .75.75 1.5.75 .75.75 .75.75 1.5.75 .75.75 .75.75 1.5.75 .75.75 .75.75 1.5.75 .75.75 1.5.75 .75.75 .75.75 1.5.75 .75.75h1.5l.75.75 1.5.75 .75.75 .75.75 1.5.75 .75.75h1.5l.75.75 1.5.75 .75.75 1.5.75h.75l1.5.75 .75.75 1.5.75 .75.75h1.5l.75.75 1.5.75h.75l1.5.75 .75.75 1.5.75h.75l1.5.75 1.5.75h.75l1.5.75h.75l1.5.75 .75.75h1.5l.75.75h1.5l1.5.75 .75.75h1.5l.75.75h1.5l1.5.75h.75l1.5.75h.75l1.5.75h1.5l.75.75h3l.75.75h1.5l.75.75h3l.75.75h3l.75.75h3l.75.75h3l.75.75h3.75l1.5.75h3.75l1.5.75h7.5l.75.75h27.75l1.5-.75h7.5l1.5-.75h3.75l.75-.75h3.75l1.5-.75h2.25l1.5-.75h2.25l1.5-.75h2.25l1.5-.75h2.25l1.5-.75h.75l1.5-.75h2.25l1.5-.75h.75l1.5-.75h1.5l.75-.75h1.5l.75-.75h1.5l1.5-.75h.75l1.5-.75 .75-.75h1.5l1.5-.75h.75l1.5-.75 .75-.75h1.5l.75-.75h1.5l.75-.75 1.5-.75h1.5l.75-.75 1.5-.75 .75-.75h1.5l.75-.75 1.5-.75h.75l1.5-.75 .75-.75 1.5-.75 .75-.75h1.5l.75-.75 1.5-.75 .75-.75 1.5-.75h.75l1.5-.75 .75-.75 .75-.75 1.5-.75 .75-.75 1.5-.75h.75l1.5-.75 .75-.75 .75-.75 1.5-.75 .75-.75 1.5-.75 .75-.75 .75-.75 1.5-.75 .75-.75 .75-.75 1.5-.75 .75-.75 .75-.75 1.5-.75 .75-.75 .75-.75 1.5-.75 .75-.75 .75-.75 1.5-.75 .75-.75 .75-.75 .75-1.5 1.5-.75 .75-.75 .75-.75 .75-.75 1.5-.75 .75-.75 .75-.75 .75-1.5 1.5-.75 .75-.75 .75-.75 .75-.75 .75-1.5 1.5-.75 .75-.75 .75-.75 .75-.75 .75-1.5 .75-.75 .75-.75 .75-.75 1.5-1.5 .75-.75 .75-.75 .75-1.5 .75-.75 .75-.75 .75-.75 .75-1.5 .75-.75 .75-.75 .75-1.5 .75-.75 .75-.75 .75-1.5 .75-.75 .75-.75 .75-1.5 .75-.75 .75-1.5 .75-.75 .75-.75 .75-1.5 .75-.75 .75-1.5 .75-.75 .75-.75v-1.5l.75-.75 .75-1.5 .75-.75 .75-1.5 .75-.75 .75-1.5v-.75l.75-1.5 .75-.75 .75-.75 .75-1.5v-.75l.75-1.5 .75-.75 .75-1.5v-.75l.75-1.5 .75-.75 .75-1.5v-1.5l.75-.75 .75-1.5v-.75l.75-1.5 .75-.75v-1.5l.75-.75 .75-1.5v-.75l.75-1.5v-1.5l.75-.75 .75-1.5v-.75l.75-1.5v-1.5l.75-.75v-1.5l.75-.75v-1.5l.75-1.5v-.75l.75-1.5v-.75l.75-1.5v-1.5l.75-.75v-3l.75-.75v-1.5l.75-.75v-3l.75-.75v-3l.75-.75v-3l.75-.75v-3.75l.75-1.5v-5.25l.75-.75v-6.75l.75-.75v-15zm-325.5,89.25 102-61.5 .75.75v1.5h.75v.75l.75.75v.75l.75.75 .75.75v.75l.75.75v.75h.75v.75l.75.75v.75h.75v1.5h.75v.75l.75.75v.75l.75.75v.75h.75v1.5h.75v1.5h.75v1.5h.75v1.5h.75v.75l.75.75v.75l.75.75v.75l.75.75v1.5l.75-.75h.75v-.75l.75-.75 .75-.75 .75-.75 1.5-.75 .75-1.5 4.5-3.75 .75-1.5 1.5-.75 .75-.75 1.5-1.5 .75-.75 .75-.75 .75-.75 .75-.75 .75-.75 .75-.75 .75-.75 .75-.75h.75v-.75l.75-.75 .75-.75h.75v-.75l.75-.75h.75l.75-.75v-.75h.75l.75-.75 .75-.75 .75-.75 .75-.75 .75-.75 .75-.75 .75-.75 .75-.75 .75-.75h.75l.75-.75v-.75l.75-.75h.75l.75-.75 .75-.75 .75-.75h.75v-.75l.75-.75 .75-.75h.75l.75-.75 .75-.75v-.75h.75l.75-.75 .75-.75h.75l.75-.75 .75-.75v-.75h.75l.75-.75 .75-.75 .75-.75h.75v-.75l.75-.75h.75l.75-.75 .75-.75 .75-.75h.75v-.75l.75-.75h.75l.75-.75 .75-.75 .75-.75 .75-.75 .75-.75h.75l.75-.75 .75-.75v-.75h.75l.75-.75 .75-.75h.75l.75-.75v-.75h.75l.75-.75 .75-.75h.75l.75-.75v-.75h.75l.75-.75 .75-.75h.75v-.75l.75-.75 .75-.75h.75l.75-.75 .75-.75 .75-.75h.75l.75-.75 .75-.75 .75-.75 .75-.75h.75v-.75l.75-.75h.75l.75-.75 .75-.75 .75-.75h.75l.75-.75 .75-.75 .75-.75 .75-.75h.75v-.75h.75l.75-.75 .75-.75 .75-.75 1.5-.75 .75-.75 1.5-.75 .75-.75 1.5-1.5 .75-.75 .75-.75 1.5-.75 .75-.75 1.5-.75 .75-.75 .75-.75 1.5-.75 .75-1.5 .75-.75 1.5-.75 .75-.75 .75-.75 1.5-.75 .75-.75 .75-.75 .75-.75h1.5l.75-.75 .75-.75 .75-.75 .75-.75 1.5-.75 .75-.75 .75-.75 .75-.75h.75l.75-.75 .75-.75 .75-.75 .75-.75h.75l.75-.75 .75-.75h.75l.75-.75 .75-.75 .75-.75h.75v-.75h.75l.75-.75 .75-.75h.75v-.75h.75l.75-.75 1.5-.75 .75-.75 .75-.75 .75-.75h.75l.75-.75 .75-.75 .75-.75h-.75v.75h-2.25l-.75.75h-1.5l-1.5.75h-2.25l-.75.75h-2.25l-.75.75h-1.5l-.75.75h-2.25l-.75.75h-1.5l-1.5.75h-1.5l-.75.75h-2.25l-.75.75h-2.25l-.75.75h-2.25l-1.5.75h-2.25l-.75.75h-1.5l-.75.75h-3l-.75.75h-1.5l-.75.75h-3l-.75.75h-1.5l-1.5.75h-1.5l-.75.75h-3l-1.5.75h-1.5l-.75.75h-1.5l-1.5.75h-3l-.75.75h-2.25l-.75.75h-3l-.75.75h-2.25l-.75.75h-3l-.75.75h-2.25l-.75.75h-3l-.75.75h-2.25l-.75.75h-3l-.75.75h-2.25l-.75.75h-3l-.75.75h-3l-.75.75h-3l-.75.75h-3l-1.5.75h-2.25l-.75.75h-3l-.75.75h-3.75l-.75.75h-2.25l-.75.75h-3.75l-.75.75h-3l-.75.75h-3.75l-.75.75h-3.75v.75h-4.5l-.75.75h-4.5l-.75.75h-3.75l-.75.75h-4.5l-.75.75h-4.5l-1.5.75h-3l-6,.75h-1.5l-1.5.75h-3.75l-.75.75h-.75l.75.75v.75l.75.75v1.5h.75v.75l.75.75v.75l.75.75v1.5h.75v1.5h.75v1.5l.75.75v1.5h.75v1.5l.75.75v1.5h.75v1.5l.75.75v1.5l.75.75v1.5l.75.75v1.5h.75v2.25l.75.75-111,42-.75-.75v-.75l-.75-1.5v-2.25l-.75-1.5v-1.5l-.75-.75v-3l-.75-.75v-3l-.75-.75v-4.5l-.75-.75v-6l-.75-.75v-27.75l.75-.75v-6l.75-.75v-3.75l.75-1.5v-3l.75-.75v-3l.75-.75v-1.5l.75-1.5v-2.25l.75-1.5v-.75l.75-.75v-2.25l.75-.75v-1.5l.75-1.5v-.75l.75-.75v-1.5l.75-1.5v-.75l.75-.75v-.75l.75-.75v-1.5l.75-.75v-.75l.75-.75v-.75l.75-1.5v-.75l.75-.75v-.75l.75-.75v-.75l.75-1.5v-.75l.75-.75 .75-.75v-.75l.75-.75v-1.5l.75-.75 .75-.75v-.75l.75-.75 .75-.75v-.75l.75-.75v-1.5l.75-.75 .75-.75v-.75l.75-.75 .75-.75 .75-.75v-.75l.75-.75 .75-.75v-.75l.75-.75 .75-.75 .75-1.5v-.75l.75-.75 .75-.75 .75-.75v-.75l.75-.75 .75-.75 .75-.75 .75-.75v-.75l.75-.75 .75-.75 .75-.75 .75-.75 .75-.75v-.75l.75-.75 .75-.75 .75-.75 .75-.75h.75l.75-.75 .75-.75v-.75l.75-.75 .75-.75 .75-.75 .75-.75 .75-.75 .75-.75 .75-.75 .75-.75h.75l.75-.75 .75-.75 .75-.75 .75-.75 .75-.75 .75-.75h.75l.75-.75 .75-.75 .75-.75 .75-.75h.75l.75-.75 .75-.75 .75-.75 .75-.75h.75l.75-.75 .75-.75 .75-.75h.75l.75-.75 .75-.75 .75-.75h.75l.75-.75 .75-.75h.75l.75-.75 1.5-.75h.75l.75-.75 .75-.75h.75l.75-.75 .75-.75h.75l.75-.75 1.5-.75h.75l.75-.75h.75l.75-.75 .75-.75h.75l1.5-.75h.75l.75-.75h.75l.75-.75h.75l1.5-.75 .75-.75h.75l.75-.75h.75l1.5-.75h1.5l.75-.75h.75l1.5-.75h.75l.75-.75h.75l.75-.75h2.25l.75-.75h.75l1.5-.75h1.5l.75-.75h2.25l.75-.75h1.5l1.5-.75h1.5l.75-.75h3l1.5-.75h2.25l1.5-.75h3.75l.75-.75h4.5l1.5-.75h9.75l.75-.75h9.75l.75.75h9.75l.75.75h6l.75.75h3.75l.75.75h3l1.5.75h1.5l.75.75h3l.75.75h2.25l.75.75h2.25l.75.75h.75l.75.75h2.25l.75.75h.75l.75.75h2.25l.75.75h.75l.75.75h1.5l.75.75h.75l.75.75h.75l1.5.75h.75l.75.75h.75l.75.75h1.5l.75.75h.75l.75.75h.75l.75.75 .75.75h1.5l.75.75h.75l.75.75 .75.75h.75l.75.75h1.5l.75.75 .75.75h.75l.75.75 .75.75h.75l.75.75 .75.75h.75l1.5.75 .75.75 .75.75h.75l.75.75 .75.75 .75.75h.75l.75.75 .75.75 .75.75h.75l.75.75 .75.75 .75.75 .75.75h.75l.75.75 .75.75 .75.75 .75.75 .75.75h.75l.75.75 .75.75 .75.75 .75.75 .75.75 .75.75h.75l.75.75 .75.75 .75.75v.75l.75.75 .75.75 .75.75 .75.75 .75.75 .75.75 .75.75 .75.75v.75l.75.75 .75.75 .75.75h.75l.75.75v.75l.75.75 .75.75 .75.75 .75,1.5v.75l.75.75 .75.75 .75.75v.75l.75.75 .75.75 .75.75v.75l.75.75 .75.75 .75.75v.75l.75.75 .75.75v.75l.75.75 .75,1.5v.75l.75.75 .75.75v.75l.75.75 .75.75v.75l.75,1.5 .75.75v.75l.75.75v.75l.75.75 .75.75v1.5l.75.75v.75l.75.75v.75l.75.75v1.5l.75.75v.75l.75.75v.75l.75,1.5v.75l.75.75v.75l.75.75v1.5l.75.75v.75l.75.75v2.25l.75.75v.75l.75.75v2.25l.75.75v1.5l.75,1.5v1.5l.75.75v2.25l.75.75v3l.75.75v3l.75.75v3l.75.75v5.25l.75.75v7.5l.75,1.5v17.25l-.75.75v7.5l-.75,1.5v4.5l-.75.75v3.75l-.75,1.5v3l-.75.75v1.5l-.75,1.5v2.25l-.75,1.5v1.5l-.75.75v1.5l-.75.75v1.5l-.75.75v2.25l-.75.75v.75l-.75,1.5v.75l-.75.75v1.5l-.75,1.5v.75l-.75.75v.75l-.75.75v1.5l-.75.75v.75l-.75.75v.75l-.75,1.5-.75.75v.75l-.75.75v.75l-.75.75v.75l-.75,1.5-.75.75v.75l-.75.75v.75l-.75.75-.75.75v1.5l-.75.75-.75.75v.75l-.75.75-.75.75v.75l-.75.75-.75.75v.75l-.75,1.5-.75.75v.75l-.75.75-.75.75-.75.75v.75l-.75.75-.75.75-.75.75v.75l-.75.75-.75.75-.75.75-.75.75v.75l-.75.75-.75.75-.75.75-.75.75-.75.75v.75l-.75.75-.75.75-.75.75-.75.75-.75.75-.75.75v.75l-.75.75-.75.75-.75.75h-.75l-.75.75-.75.75-.75.75-.75.75-.75.75-.75.75-.75.75-.75.75-.75.75-.75.75-.75.75-.75.75-.75.75-.75.75h-.75l-.75.75-.75.75-.75.75-.75.75h-.75l-.75.75-.75.75-.75.75h-1.5l-.75.75-.75.75-.75.75h-.75l-.75.75-.75.75-.75.75h-.75l-.75.75-.75.75h-.75l-.75.75-.75.75h-1.5l-.75.75-.75.75h-.75l-.75.75-.75.75h-.75l-.75.75h-1.5l-.75.75-.75.75h-.75l-.75.75h-.75l-.75.75-1.5.75h-.75l-.75.75h-.75l-.75.75h-.75l-1.5.75h-.75l-.75.75h-.75l-.75.75h-1.5l-.75.75h-.75l-.75.75h-.75l-1.5.75h-1.5l-.75.75h-.75l-1.5.75h-1.5l-.75.75h-1.5l-.75.75h-1.5l-1.5.75h-1.5l-.75.75h-3l-.75.75h-2.25l-.75.75h-3l-.75.75h-3.75l-1.5.75h-4.5l-.75.75h-9l-.75.75h-13.5l-.75-.75h-9l-.75-.75h-5.25l-.75-.75h-3.75l-.75-.75h-3l-.75-.75h-3l-.75-.75h-2.25l-.75-.75h-2.25l-.75-.75h-1.5l-1.5-.75h-.75l-.75-.75h-2.25l-.75-.75h-.75l-.75-.75h-2.25l-.75-.75h-.75l-.75-.75h-1.5l-.75-.75h-.75l-.75-.75h-.75l-.75-.75h-1.5l-.75-.75h-.75l-.75-.75h-.75l-1.5-.75h-.75l-.75-.75h-.75l-.75-.75-.75-.75h-1.5l-.75-.75h-.75l-.75-.75-.75-.75h-.75l-.75-.75-.75-.75h-1.5l-.75-.75h-.75l-.75-.75-.75-.75h-.75l-.75-.75-.75-.75-.75-.75h-.75l-.75-.75-1.5-.75h-.75l-.75-.75-.75-.75-.75-.75h-.75l-.75-.75-.75-.75-.75-.75-.75-.75h-.75l-.75-.75-.75-.75-.75-.75-.75-.75h-.75l-.75-.75-.75-.75-.75-.75-.75-.75-.75-.75h-.75l-.75-.75-.75-.75-.75-.75-.75-.75-.75-.75-.75-.75v-.75h-.75l-.75-.75-.75-.75-.75-.75-.75-.75-.75-.75-.75-.75-.75-.75-.75-.75v-.75l-.75-.75-.75-.75-.75-.75-.75-.75-.75-.75-.75-.75v-.75l-.75-.75-.75-.75-.75-.75-.75-.75v-.75l-.75-.75-.75-.75-.75-.75v-.75l-.75-.75-.75-.75z" fill="#fb0f0c" fill-rule="evenodd"></path>
	
</svg>
